<svg xmlns="http://www.w3.org/2000/svg" width="470.1" height="203.4" viewBox="0 0 470.1 203.4" preserveAspectRatio="none"><path fill="#69534f" d="M304.8 203.4c-17.3 0-27-13.4-31.6-19.8s-6.2-13.8-6-22.5c0-6.8 3-13 10.5-20.3L344 74c18.3-18.6 36.4-37 50.7-51.2a38.7 38.7 0 0 1 12-8.2c15.8-7 19.5-8 35-12l2-.5a37.8 37.8 0 0 1 11.6-2 16.2 16.2 0 0 1 7.8 1.7c8 4.2 8.3 14 5.4 22l-.8 3.5c-3.8 16-5.7 24-13 40.4a27.8 27.8 0 0 1-6 8.6l-62.3 61.3-34.4 33.8c-8.6 8.3-18.6 18.8-22 22.3l-.7 1-.5.4c-7.8 7-21.2 8.2-21.3 8.2H305z"/><path fill="#fff" d="M398 33.5l18.2-12 33.3-3.7s3 1 3.7 3 0 15.8 0 15.8l-15 24s-15 2.7-16.5 1.6S412 51 412 51l-14-17.6z"/><path fill="#469e46" d="M277.6 159c0-3.6 1.3-7.3 7.4-13.3 32.2-32 84.3-85.2 117-118a29 29 0 0 1 8.8-6c15.8-6.8 18.4-7.4 35.8-12 2.7-1 9.3-2.3 11.6-1s1.4 7 .2 9.7c-4.4 18.5-6 26-13.4 42.8a16.8 16.8 0 0 1-3.7 5.4l-96.8 95.2c-9.4 9.3-20.5 21-22.8 23.4-4.5 4-13.7 5.4-15 5.5-11.7 1-18.8-6.8-25-15.4-4.3-6.4-4-14-4-16.2zM424.4 57a2 2 0 0 0 2 1.8l4-.3c6-.3 9.6-2.8 11.4-9C444 41.7 450 33 447.5 26c-1-3-6.3-5.7-7.8-5.6-7.8.3-19 5.6-24.2 7.7-3.7 1.6-5.8 9-6.5 13.3-.8 2.7 2.2 3.3 2.2 3.3h11.3a2 2 0 0 1 2 2z"/><path fill="#6dbc5b" d="M295.3 162.7a4 4 0 0 1-2.8-6.6L396.5 51a4 4 0 0 1 5.8 5l-.4.5-104 105.2a4 4 0 0 1-2.7 1.2zm14 15.3a4 4 0 0 1-2.7-6.6L410.6 66a4 4 0 0 1 5.8 5.2l-.4.4L312.2 177a4 4 0 0 1-2.8 1z"/><path fill="#69534f" d="M176.6 182c-9.3-.4-17.4-2.7-24-7a49.3 49.3 0 0 1-7.2-5 29 29 0 0 1-13.4 3h-3.7a27.8 27.8 0 0 1-18-10 26 26 0 0 1-5.3-21.6l.6-3-3.8.2h-3a42.4 42.4 0 0 1-13.8 17c-6.3 4.4-14.3 7-24.6 7.5h-16c-10-1-17-2.6-22.4-5.3-7.3-3.6-12.8-8.3-16.4-14A34 34 0 0 1 0 125a32.8 32.8 0 0 1 5.8-18.6 24.6 24.6 0 0 1-2.5-25 23.8 23.8 0 0 1-2.3-10 24.7 24.7 0 0 1 9.6-19.7 28.8 28.8 0 0 1 18-6.2h26.5l1.7-1.6a28.5 28.5 0 0 1 19-7.2h.6a28.3 28.3 0 0 1 18 7.2l1.5 1.5h5.6a29.3 29.3 0 0 1 17.7 5.8l1 .7a25.8 25.8 0 0 1 6.6 8.7 29.2 29.2 0 0 1 3.3-2.3 27.7 27.7 0 0 1 14.5-4 28.4 28.4 0 0 1 5.3.4 28 28 0 0 1 15.6 8.5H212a26.6 26.6 0 0 1 7.8-15 27.5 27.5 0 0 1 19.3-7.6h39.6a28 28 0 0 1 19 7.2l.7.5a27.8 27.8 0 0 1 12.6-3h.5a27.7 27.7 0 0 1 18.5 8 27.4 27.4 0 0 1 8.3 17.5 47.8 47.8 0 0 1 28-8.7c14.7 0 28 6 38.8 17a28.6 28.6 0 0 1 12.7-7.3l1.3-.3a30 30 0 0 1 6.3-.7 28.4 28.4 0 0 1 11.4 2.4l1.6.8A27 27 0 0 1 451.5 91a28 28 0 0 1 1 7 26 26 0 0 1-5 15c-10.4 14.7-24.8 22.5-41.6 22.5-14.8 0-28.2-6-39-17.2a28.5 28.5 0 0 1-12.5 7.4l-1.2.3a29.6 29.6 0 0 1-6.3.7 28 28 0 0 1-9.5-1.7 82.3 82.3 0 0 1-5.8 19.6l-.8 1.6c-5.3 9.4-14 14.7-24.2 14.7a31.5 31.5 0 0 1-9.8-1.7l-2.2-1a29.2 29.2 0 0 1-6.7-4.3c-6.3 5-14.5 8-24.5 8.6h-8c-9.7-.4-18.2-3-25-8a43.5 43.5 0 0 1-5-3.8 43.5 43.5 0 0 1-11.3 18 45.2 45.2 0 0 1-29.4 13.3h-8.2z"/><path fill="#fff" d="M176.8 169a39 39 0 0 1-19-5.4 37.6 37.6 0 0 1-6.7-5 7.8 7.8 0 0 0-9.3-1 18.5 18.5 0 0 1-9.7 2.4h-2.3a17.3 17.3 0 0 1-11.3-6.4 15.4 15.4 0 0 1-3.3-13l1.4-7a7.8 7.8 0 0 0-9.7-9 19.8 19.8 0 0 1-5 .8H97a7.8 7.8 0 0 0-7.2 5l-.5 1a31.7 31.7 0 0 1-10.4 13c-4.7 3.5-11 5.3-19.2 5.7H45.4c-8.5-.8-14.6-2.2-18.7-4.2-5.6-2.8-9.7-6.2-12.4-10.2a23.8 23.8 0 0 1-4-13.2 22.5 22.5 0 0 1 4.2-13l.7-1a7.8 7.8 0 0 0-.4-9.8 14.2 14.2 0 0 1-2-16 7.8 7.8 0 0 0 0-7.4 13.3 13.3 0 0 1-1.5-6.5A14.2 14.2 0 0 1 17 57.3a18.4 18.4 0 0 1 11.6-4h27.6a7.8 7.8 0 0 0 6-2.6l1.4-1.5a18 18 0 0 1 23.8.2l1.3 1.4a7.8 7.8 0 0 0 6 2.7h6.6a19 19 0 0 1 11.5 3.7l.4.3a15.2 15.2 0 0 1 5 7.4 7.8 7.8 0 0 0 13.2 2.7 16 16 0 0 1 4-3.3 17.4 17.4 0 0 1 9-2.6 18.4 18.4 0 0 1 14 6.2 7.8 7.8 0 0 0 5.8 2.8h50a7.8 7.8 0 0 0 7.8-7 16.2 16.2 0 0 1 5-11 17 17 0 0 1 12-4.7h39.6a17.7 17.7 0 0 1 12 4.7l1.2 1.2a7.8 7.8 0 0 0 10 1.6 17.4 17.4 0 0 1 21 2.5 16.8 16.8 0 0 1 5.3 12v3.3a7.8 7.8 0 0 0 13 6 37.8 37.8 0 0 1 25.4-9.5c12 0 23.2 5 32 14.8L400 86a7.8 7.8 0 0 0 5.3 2.2h.5a7.8 7.8 0 0 0 5.5-3 18 18 0 0 1 9.3-6h.5a20.8 20.8 0 0 1 4.3-.5 18.4 18.4 0 0 1 7.3 1.6l.7.3a16.5 16.5 0 0 1 8 10 17.6 17.6 0 0 1 .5 4.3 15.7 15.7 0 0 1-3 9c-8.3 12-19.7 18-33 18s-23.2-5-32-14.7l-1.7-1.5a7.8 7.8 0 0 0-5-2h-.7a7.8 7.8 0 0 0-5.5 2.8 18 18 0 0 1-9.3 6h-.4a21.3 21.3 0 0 1-4.2.6 18 18 0 0 1-7.3-1.6l-.6-.3a7.8 7.8 0 0 0-11.5 6 70.8 70.8 0 0 1-5.5 20l-.4.7c-3.4 6-8.7 9.4-15 9.4a20.8 20.8 0 0 1-6.5-1l-1-.5a18.8 18.8 0 0 1-5.3-4 7.8 7.8 0 0 0-10.8-.5c-5 4.6-11.7 7-20.2 7.6h-7.2a36 36 0 0 1-19.4-6 36.6 36.6 0 0 1-5.8-4.8 7.8 7.8 0 0 0-8.8-1.6l-1 .4a8 8 0 0 0-4.7 5.4 33 33 0 0 1-9.2 15.7 35 35 0 0 1-22.8 10.7h-7.2z"/><path fill="#5d843a" d="M19.2 89.3A6.4 6.4 0 0 1 22 84a10.8 10.8 0 0 1 6.7-2H66v-6H28.6a10.4 10.4 0 0 1-6.7-2 6.4 6.4 0 0 1 0-10.6 10.4 10.4 0 0 1 6.6-2.2H66a8.5 8.5 0 0 1 3-6.3 10.2 10.2 0 0 1 6.7-2.5 10 10 0 0 1 6.5 2.5 8.6 8.6 0 0 1 2.8 6.2h16.3a11 11 0 0 1 6.8 2 7 7 0 0 1 2.8 5.5A6.5 6.5 0 0 1 108 74a10.4 10.4 0 0 1-6.7 2H85v6h16.3a11 11 0 0 1 6.8 2 6.4 6.4 0 0 1 2.8 5.2 6.6 6.6 0 0 1-2.8 5.3 10.4 10.4 0 0 1-6.7 2.2H85v6h16.6a10.8 10.8 0 0 1 6.8 2 6.5 6.5 0 0 1 2.8 5.5 5.8 5.8 0 0 1-2.8 5 10 10 0 0 1-6.7 2.4H85a34.4 34.4 0 0 1-2.8 10.6 24 24 0 0 1-8 10q-5 3.5-15 4h-13c-7.4-.7-12.7-1.8-16-3.5S23 134 21 131.2a16 16 0 0 1-2.8-9 15.3 15.3 0 0 1 2.8-8.5q2.8-4.2 9.2-7.6a32.4 32.4 0 0 1 15.5-3.3H66v-6H28.6a10.6 10.6 0 0 1-6.7-2 6.8 6.8 0 0 1-2.8-5.4zm35.3 38.3q5.4-.3 7.5-2a10 10 0 0 0 3-5q.4-1.2.7-3h-20a12.3 12.3 0 0 0-4.5.7 6 6 0 0 0-2.6 2 3.6 3.6 0 0 0-.8 2 4.2 4.2 0 0 0 .8 2 7 7 0 0 0 2.6 2.2 10.8 10.8 0 0 0 4.5 1z"/><path fill="#84bf41" d="M46.3 139.8c-7.2-.7-12.4-2-15.5-3.4s-7-4.4-8.8-7a15 15 0 0 1-2.6-8.3 14 14 0 0 1 2.6-7.8c1.8-2.6 4.7-5 8.8-7.2a31.3 31.3 0 0 1 15-3.3h20a1.3 1.3 0 0 0 1.4-1.3v-6A1.3 1.3 0 0 0 66 94H28.6a9 9 0 0 1-6-1.7 5.5 5.5 0 0 1-2.2-4.4 5 5 0 0 1 2.3-4.3 9.3 9.3 0 0 1 6-2H66a1.3 1.3 0 0 0 1.3-1.2v-5.8a1.3 1.3 0 0 0-1.3-1.3H28.7a9 9 0 0 1-6-1.8 5 5 0 0 1 0-8.5 9 9 0 0 1 6-1.8h37.2A1.3 1.3 0 0 0 67 60a7.2 7.2 0 0 1 2.6-5.3 8.8 8.8 0 0 1 11.6.2 7.3 7.3 0 0 1 2.4 5 1.3 1.3 0 0 0 1.2 1.2h16.3a9.7 9.7 0 0 1 6 2 5.6 5.6 0 0 1 2.2 4.3 5.2 5.2 0 0 1-2.3 4.2 9.2 9.2 0 0 1-6 2H85a1.3 1.3 0 0 0-1.3 1.2v5.7A1.3 1.3 0 0 0 85 82h16.3a9.7 9.7 0 0 1 6 1.8 5.2 5.2 0 0 1 2.2 4.2 5.3 5.3 0 0 1-2.2 4.3 9 9 0 0 1-6 2H85a1.3 1.3 0 0 0-1.3 1.2v6a1.3 1.3 0 0 0 1.3 1.2h16.6a9.3 9.3 0 0 1 6 2 5.3 5.3 0 0 1 2.3 4.3 4.5 4.5 0 0 1-2.3 4 8.8 8.8 0 0 1-6 2H85a1.3 1.3 0 0 0-1.4 1.3 33.5 33.5 0 0 1-2.6 10.2 23.2 23.2 0 0 1-7.4 9.3c-3 2.3-8 3.6-14.3 4h-13zm-.6-24.7a13.5 13.5 0 0 0-5 1 7.2 7.2 0 0 0-3.2 2.2 5 5 0 0 0-1 3 5 5 0 0 0 1 2.6 8 8 0 0 0 3 2.6 13 13 0 0 0 5 1.2h9c4-.2 6.7-1 8.4-2.4a11.6 11.6 0 0 0 3.4-5.5l.6-3.2a1.2 1.2 0 0 0-1.3-1.5h-20z"/><path fill="#8b5b25" d="M118.5 87.6a8.3 8.3 0 0 1 2.8-6.2 9.4 9.4 0 0 1 6.7-2.6h6.8l.4-2a8.8 8.8 0 0 1 4-5.5 10.4 10.4 0 0 1 13.3 2.3 9 9 0 0 1 1.7 5.3h19.4a9.8 9.8 0 0 1 6.8 2.5 8.6 8.6 0 0 1 2.7 6.3 8 8 0 0 1-2.7 6 9.6 9.6 0 0 1-6.7 2.7H151l-9.4 49c-1.5 5-5 7.5-10.8 7a9.7 9.7 0 0 1-6.4-3.4 7.8 7.8 0 0 1-1.7-6.6l8.8-46H128a9.3 9.3 0 0 1-6.7-2.5 8 8 0 0 1-2.8-6.2zm81.5 13a10 10 0 0 1 6.5 2.6 7.8 7.8 0 0 1 2.8 5.5v5.4h4.7a9.6 9.6 0 0 1 6.7 2.7 8 8 0 0 1 2.8 6 7 7 0 0 1-2.8 6 9.8 9.8 0 0 1-6.7 2.3h-4.7v2.7q0 11.8-8 19.4a27 27 0 0 1-17.7 8.3h-6.2c-6.2-.3-11.4-1.7-15.5-4.3s-7.5-5.6-9.4-9a22 22 0 0 1-2.8-10.3 26.3 26.3 0 0 1 2.8-11.2 19.6 19.6 0 0 1 8.8-9 25.4 25.4 0 0 1 11.4-3.3H190v-5.5a7.8 7.8 0 0 1 3-5.6 10 10 0 0 1 7-2.4zm-12.6 40a12 12 0 0 0 2.8-8.7v-1h-12.8a7 7 0 0 0-4.5 1 9 9 0 0 0-2.7 2.6 5.8 5.8 0 0 0-1 3 6.7 6.7 0 0 0 1 2.6 7 7 0 0 0 2.6 3 9 9 0 0 0 4.4 1.2h1.4a11.8 11.8 0 0 0 8.5-3.6zm1.6-53a8.3 8.3 0 0 1 2.8-6.3 9.4 9.4 0 0 1 6.7-2.6h12.8a10 10 0 0 1 6.8 2.6 8.5 8.5 0 0 1 2.8 6.2 8 8 0 0 1-2.7 6 9.7 9.7 0 0 1-6.6 2.7h-13a9.4 9.4 0 0 1-6.7-2.6 8 8 0 0 1-2.8-6z"/><path fill="#f39f1f" d="M177.4 158.6c-6-.3-11-1.6-14.8-4a22.7 22.7 0 0 1-9-8.6 20.6 20.6 0 0 1-2.5-9.7 25 25 0 0 1 2.8-10.7 18.4 18.4 0 0 1 8.2-8.5 24.2 24.2 0 0 1 10.7-3H190a1.3 1.3 0 0 0 1.3-1.2v-5.4a6.5 6.5 0 0 1 2.5-4.6 8.8 8.8 0 0 1 11.6 0 6.5 6.5 0 0 1 2.4 4.7v5.3a1.3 1.3 0 0 0 1.3 1.3h5a8.3 8.3 0 0 1 6 2.3 6.7 6.7 0 0 1 2.3 5.2 5.8 5.8 0 0 1-2.3 4.8 8.3 8.3 0 0 1-6 2h-4.6a1.2 1.2 0 0 0-1 .5 1.3 1.3 0 0 0-.3 1v2.6c0 7.4-2.5 13.6-7.5 18.4a26 26 0 0 1-17 7.8h-6zm-.6-30.3a8 8 0 0 0-4.6 1.3 9.8 9.8 0 0 0-3 3 7 7 0 0 0-1 3.6 7.3 7.3 0 0 0 1 3 8.5 8.5 0 0 0 3 3.4 10.3 10.3 0 0 0 5.2 1.5h1.5a12.5 12.5 0 0 0 12.4-12.4v-2a1.3 1.3 0 0 0-1.3-1.2H177zM132 149.7h-1a8.3 8.3 0 0 1-5.6-3 6.4 6.4 0 0 1-1.5-5.7l8.7-46a1.4 1.4 0 0 0-1.3-1.5H128a8 8 0 0 1-5.8-2.2 6.6 6.6 0 0 1-2.4-5.2 7 7 0 0 1 2.4-5 8 8 0 0 1 5.8-2.3h6.8a1.3 1.3 0 0 0 1.3-1l.5-2A7.4 7.4 0 0 1 140 71a8.4 8.4 0 0 1 4.5-1.3l1.7.2a8.5 8.5 0 0 1 5.3 3 7.5 7.5 0 0 1 1.4 4.4 1.3 1.3 0 0 0 1.2 1.3h19.4a8.6 8.6 0 0 1 6 2.2A7 7 0 0 1 182 86a6.7 6.7 0 0 1-2.5 5.2 8.2 8.2 0 0 1-6 2.2H151a1.3 1.3 0 0 0-1.3 1l-9.4 49c-1.2 4.2-4 6-8.4 6zm66.4-56a8 8 0 0 1-5.8-2.3 6.7 6.7 0 0 1-2.4-5.2 7 7 0 0 1 2.4-5.2 8 8 0 0 1 5.8-2.3h12.8a8.6 8.6 0 0 1 6 2.3 7.2 7.2 0 0 1 2.2 5.3 6.6 6.6 0 0 1-2.3 5.2 8.4 8.4 0 0 1-5.8 2.2h-12.8z"/><path fill="#b23925" d="M229.6 65a8.4 8.4 0 0 1 2.8-6.2 9.4 9.4 0 0 1 6.7-2.6h39.6a9.8 9.8 0 0 1 6.8 2.6q2.7 2.7 2.7 8.7V89h13V70.2a9 9 0 0 1 3-6.6 9.7 9.7 0 0 1 6.8-2.6 9.6 9.6 0 0 1 6.5 3 9 9 0 0 1 2.8 6.4V89h1a9.5 9.5 0 0 1 6.8 2.5 8.3 8.3 0 0 1 2.8 6.3 8 8 0 0 1-3 6.3 9.4 9.4 0 0 1-6.6 2.7h-1v5.4a58.7 58.7 0 0 1-5.3 22.7c-2.7 5-7 6.5-12.4 4.7a10.6 10.6 0 0 1-5.2-5.3 8.2 8.2 0 0 1 0-7q3.7-8.2 3.7-14.3v-6H288a58.5 58.5 0 0 1-2.7 17 31.2 31.2 0 0 1-8 12.8q-5 4.7-15 5.3h-6q-9.4-.5-15.5-4.7a26.2 26.2 0 0 1-9.3-10 26.8 26.8 0 0 1-2.8-11.8 25.5 25.5 0 0 1 2.8-11.4 27 27 0 0 1 9.3-10q6.4-4.5 16.3-4.7h12V74h-30a9.3 9.3 0 0 1-6.6-2.5 8.5 8.5 0 0 1-2.8-6.4zm35.5 56a17.5 17.5 0 0 0 3.2-7 51.6 51.6 0 0 0 .7-7.3h-13a7.3 7.3 0 0 0-4.4 1.6 10 10 0 0 0-2.6 3.3 8.6 8.6 0 0 0-1 3.8 10 10 0 0 0 1 3.5 8.4 8.4 0 0 0 2.5 3.5 7.6 7.6 0 0 0 4.5 1.6h1.4q5.4-.2 7.5-3z"/><path fill="#ea6034" d="M256 139.2c-5.8-.3-10.8-1.8-14.6-4.5a25 25 0 0 1-8.8-9.7 26 26 0 0 1-2.6-11.2 25 25 0 0 1 2.7-10.8 26 26 0 0 1 8.8-9.7c4-2.8 9.3-4.2 15.6-4.3h12a1.3 1.3 0 0 0 1.3-1.3v-15a1.3 1.3 0 0 0-1.3-1.3h-30a8 8 0 0 1-5.7-2.2 7.2 7.2 0 0 1-2.4-5.5 7 7 0 0 1 2.3-5.4 8 8 0 0 1 6-2.3h39.3a8.5 8.5 0 0 1 6 2.2c1.5 1.5 2.3 4 2.3 7.7v21.7A1.3 1.3 0 0 0 288 89h13a1.3 1.3 0 0 0 1.3-1.3V69a7.8 7.8 0 0 1 2.6-5.6 8.4 8.4 0 0 1 6-2.3 8.2 8.2 0 0 1 5.6 2.5A8 8 0 0 1 319 69v18.7a1.3 1.3 0 0 0 1.4 1.3h1a8 8 0 0 1 6 2.3 7 7 0 0 1 2.3 5.4 6.5 6.5 0 0 1-2.4 5.2 8.2 8.2 0 0 1-6 2.2h-1a1.3 1.3 0 0 0-1.2 1.3v5.4a57.8 57.8 0 0 1-5 22c-1.7 3-4 4.5-7 4.5a12.3 12.3 0 0 1-3.7-.7 9.2 9.2 0 0 1-4.4-4.6 7 7 0 0 1-.2-6c2.5-5.6 3.8-10.6 3.8-15v-6a1.3 1.3 0 0 0-1.3-1.2H288a1.3 1.3 0 0 0-1.3 1.3A57.4 57.4 0 0 1 284 122a30.3 30.3 0 0 1-7.6 12c-3 3-8 4.6-14 5H256zm0-35a8.6 8.6 0 0 0-5.2 1.8 11.2 11.2 0 0 0-3 3.7 9.8 9.8 0 0 0-1 4.3 11.7 11.7 0 0 0 1 4 9.7 9.7 0 0 0 3 4 9 9 0 0 0 5 2h1.6c4-.3 7-1.5 8.5-3.6a19 19 0 0 0 3.3-7.6 52 52 0 0 0 .7-7.5 1.4 1.4 0 0 0-1.3-1.3H256z"/><path fill="#2f6a8b" d="M405.8 114.6c-10 0-19-4-26.4-12.3A26.3 26.3 0 0 0 373 97a15.3 15.3 0 0 0-7.2-1.4c-4 0-7.6 2-10.8 6a10.6 10.6 0 0 1-5.6 3.8 11.4 11.4 0 0 1-2.6.3 10.2 10.2 0 0 1-4.2-1 9 9 0 0 1-4.8-7.7 8 8 0 0 1 1.5-4.7c7-9.8 16-14.8 26.8-14.8s19 4 26.5 12.3a24.2 24.2 0 0 0 6.3 5.2 15.6 15.6 0 0 0 7.2 1.5c4 0 7.6-2 10.8-6a10.6 10.6 0 0 1 5.6-3.8l2.6-.3a10.3 10.3 0 0 1 4.2 1 8.7 8.7 0 0 1 4.5 5.6 8.2 8.2 0 0 1 .3 2.2 7.7 7.7 0 0 1-1.5 4.6c-7 9.8-16 14.8-26.7 14.8z"/><path fill="#68a2cc" d="M405.8 112c-9.6 0-18.2-4-25.4-11.8a27.3 27.3 0 0 0-6.7-5.4 16.7 16.7 0 0 0-7.8-1.6c-4.6 0-8.4 2-12 6.5a9.3 9.3 0 0 1-4.8 3.4l-2.3.4a9 9 0 0 1-3.8-.8 7.4 7.4 0 0 1-3.8-4.8 7.7 7.7 0 0 1-.2-1.8 6.6 6.6 0 0 1 1.3-4c6.7-9.3 15.3-14 25.7-14s18.2 4 25.4 11.7a25.3 25.3 0 0 0 6.7 5.4 17 17 0 0 0 7.8 1.7c4.6 0 8.5-2 12-6.5a9.3 9.3 0 0 1 4.8-3.4l2.3-.2a8.5 8.5 0 0 1 3.7.8 7.4 7.4 0 0 1 3.8 4.8 8 8 0 0 1 .2 1.8 6.6 6.6 0 0 1-1.3 4c-6.7 9.3-15.3 14-25.7 14z"/></svg>
